<svg width="30" height="29" viewBox="0 0 30 29" fill="none" xmlns="http://www.w3.org/2000/svg">
<path d="M11.188 24.9486C7.71627 24.1614 5.00547 21.541 4.19109 18.1849C3.60297 15.7611 3.60297 13.2389 4.19109 10.8151C5.00547 7.45906 7.71627 4.83862 11.188 4.0514C13.6954 3.48287 16.3046 3.48287 18.812 4.05139C22.2838 4.83862 24.9945 7.45905 25.8089 10.8151C26.397 13.2389 26.397 15.7611 25.8089 18.1849C24.9945 21.541 22.2838 24.1614 18.812 24.9486C16.3046 25.5171 13.6954 25.5171 11.188 24.9486Z" stroke="#5051F9" stroke-width="1.5"/>
<path d="M11.1881 24.9486C13.6954 25.5171 16.3047 25.5171 18.8121 24.9486C22.2838 24.1614 24.9946 21.541 25.809 18.1849C26.3971 15.7611 26.3971 13.2389 25.809 10.8151C24.9946 7.45904 22.2838 4.83862 18.8121 4.0514C16.3047 3.48287 13.6954 3.48287 11.1881 4.0514C7.71632 4.83862 5.00554 7.45906 4.19116 10.8151" stroke="white" stroke-width="1.5" stroke-linecap="round"/>
<path d="M15 18.7291V13.8958" stroke="#5051F9" stroke-width="1.5" stroke-linecap="round" stroke-linejoin="round"/>
<path d="M15 11.4791C15.3452 11.4791 15.625 11.2087 15.625 10.875C15.625 10.5413 15.3452 10.2708 15 10.2708C14.6548 10.2708 14.375 10.5413 14.375 10.875C14.375 11.2087 14.6548 11.4791 15 11.4791Z" stroke="#5051F9" stroke-linecap="round" stroke-linejoin="round"/>
</svg>
