<svg width="30" height="29" viewBox="0 0 30 29" fill="none" xmlns="http://www.w3.org/2000/svg">
<path d="M15.9375 21.657C15.9375 21.1565 15.5177 20.7507 15 20.7507C14.4822 20.7507 14.0625 21.1565 14.0625 21.657H15.9375ZM14.0625 25.375C14.0625 25.8755 14.4822 26.2813 15 26.2813C15.5177 26.2813 15.9375 25.8755 15.9375 25.375H14.0625ZM11.7048 24.4688C11.187 24.4688 10.7673 24.8745 10.7673 25.375C10.7673 25.8755 11.187 26.2813 11.7048 26.2813V24.4688ZM18.2951 26.2813C18.813 26.2813 19.2326 25.8755 19.2326 25.375C19.2326 24.8745 18.813 24.4688 18.2951 24.4688V26.2813ZM24.6994 8.39577L24.7597 8.59733L26.5609 8.09349L26.5005 7.89193L24.6994 8.39577ZM24.7597 16.1264L24.6994 16.328L26.5005 16.8317L26.5609 16.6302L24.7597 16.1264ZM5.30061 16.328L5.24027 16.1264L3.43917 16.6302L3.49951 16.8317L5.30061 16.328ZM5.24027 8.59732L5.30061 8.39577L3.49951 7.89193L3.43917 8.09348L5.24027 8.59732ZM5.24027 16.1264C4.50323 13.6643 4.50323 11.0593 5.24027 8.59732L3.43917 8.09348C2.60361 10.8846 2.60361 13.839 3.43917 16.6302L5.24027 16.1264ZM24.7597 8.59733C25.4967 11.0594 25.4967 13.6643 24.7597 16.1264L26.5609 16.6302C27.3964 13.839 27.3964 10.8846 26.5609 8.09349L24.7597 8.59733ZM20.8434 19.6604C16.9844 20.3697 13.0156 20.3697 9.15663 19.6604L8.80641 21.441C12.8969 22.1929 17.1031 22.1929 21.1936 21.441L20.8434 19.6604ZM9.15663 5.06321C13.0156 4.35393 16.9844 4.35393 20.8434 5.06321L21.1936 3.28261C17.1031 2.5308 12.8969 2.5308 8.80641 3.28261L9.15663 5.06321ZM9.15663 19.6604C7.29083 19.3175 5.80726 18.0204 5.30061 16.328L3.49951 16.8317C4.20857 19.2003 6.26875 20.9746 8.80641 21.441L9.15663 19.6604ZM21.1936 21.441C23.7312 20.9746 25.7914 19.2003 26.5005 16.8317L24.6994 16.328C24.1927 18.0204 22.7091 19.3175 20.8434 19.6604L21.1936 21.441ZM20.8434 5.06321C22.7091 5.40615 24.1927 6.70335 24.6994 8.39577L26.5005 7.89193C25.7914 5.52333 23.7312 3.74903 21.1936 3.28261L20.8434 5.06321ZM8.80641 3.28261C6.26875 3.74903 4.20857 5.52333 3.49951 7.89193L5.30061 8.39577C5.80726 6.70335 7.29083 5.40615 9.15663 5.06321L8.80641 3.28261ZM14.0625 21.657V25.375H15.9375V21.657H14.0625ZM11.7048 26.2813H18.2951V24.4688H11.7048V26.2813Z" fill="white"/>
<path d="M10 13.5937L12.5735 11.6346C13.0432 11.277 13.2781 11.0982 13.5379 11.1301C13.7976 11.162 13.9789 11.3919 14.3412 11.8516L15.6588 13.5233C16.0211 13.9831 16.2024 14.213 16.4621 14.2449C16.7219 14.2768 16.9568 14.098 17.4265 13.7403L20 11.7812" stroke="#5051F9" stroke-width="1.5" stroke-linecap="round"/>
</svg>
