<svg width="30" height="29" viewBox="0 0 30 29" fill="none" xmlns="http://www.w3.org/2000/svg">
<path d="M4.60981 10.958C5.39265 7.73188 7.9985 5.2129 11.3359 4.45615C13.7461 3.90964 16.2544 3.90964 18.6646 4.45615C22.002 5.2129 24.6079 7.73188 25.3907 10.958C25.9561 13.2879 25.9561 15.7126 25.3907 18.0425C24.6079 21.2686 22.002 23.7876 18.6646 24.5444C16.2544 25.0909 13.7461 25.0909 11.3359 24.5444C7.9985 23.7876 5.39265 21.2686 4.60981 18.0425C4.04445 15.7127 4.04445 13.2879 4.60981 10.958Z" stroke="white" stroke-width="1.5"/>
<path d="M11.25 10.875H16.25M11.25 18.125H15M11.25 14.5H18.75" stroke="#5051F9" stroke-width="1.5" stroke-linecap="round"/>
</svg>
