<svg width="30" height="29" viewBox="0 0 30 29" fill="none" xmlns="http://www.w3.org/2000/svg">
<path d="M3.75 22.2732C3.75 19.8539 5.56856 17.7932 8.04005 17.4119L8.26266 17.3775C10.2417 17.0722 12.2583 17.0722 14.2374 17.3775L14.46 17.4119C16.9314 17.7932 18.75 19.8539 18.75 22.2732C18.75 23.3189 17.873 24.1667 16.7912 24.1667H5.70871C4.62695 24.1667 3.75 23.3189 3.75 22.2732Z" stroke="white" stroke-width="1.5"/>
<path d="M15.625 9.06251C15.625 11.3982 13.6662 13.2917 11.25 13.2917C8.83375 13.2917 6.875 11.3982 6.875 9.06251C6.875 6.7268 8.83375 4.83334 11.25 4.83334C13.6662 4.83334 15.625 6.7268 15.625 9.06251Z" stroke="white" stroke-width="1.5"/>
<path d="M18.75 13.2917C21.1662 13.2917 23.125 11.3982 23.125 9.06251C23.125 6.7268 21.1662 4.83334 18.75 4.83334M21.7374 24.1667H24.2913C25.373 24.1667 26.25 23.3189 26.25 22.2732C26.25 19.8539 24.4314 17.7932 21.96 17.4119C21.8118 17.389 21.6616 17.3775 21.5116 17.3775C21.1119 17.3775 20.9877 17.3775 20.3015 17.3775" stroke="#5051F9" stroke-width="1.5" stroke-linecap="round"/>
</svg>
