<svg width="30" height="29" viewBox="0 0 30 29" fill="none" xmlns="http://www.w3.org/2000/svg">
<path d="M18.812 4.05139C22.2837 4.83862 24.9945 7.45905 25.8089 10.8151C26.397 13.2388 26.397 15.7612 25.8089 18.1849C24.9945 21.541 22.2837 24.1614 18.812 24.9486C16.3047 25.5171 13.6953 25.5171 11.188 24.9486C7.71626 24.1614 5.00546 21.541 4.19109 18.1849C3.60297 15.7612 3.60297 13.2388 4.19109 10.8151C5.00546 7.45906 7.71625 4.83862 11.188 4.05139C13.6953 3.48287 16.3047 3.48287 18.812 4.05139Z" stroke="#5051F9" stroke-width="1.5"/>
<path d="M18.812 4.05139C16.3047 3.48287 13.6953 3.48287 11.188 4.05139C7.71625 4.83862 5.00546 7.45906 4.19109 10.8151C3.60297 13.2388 3.60297 15.7612 4.19109 18.1849C5.00546 21.541 7.71626 24.1614 11.188 24.9486C13.6953 25.5171 16.3047 25.5171 18.812 24.9486C22.2837 24.1614 24.9945 21.541 25.8089 18.1849" stroke="white" stroke-width="1.5" stroke-linecap="round"/>
<path d="M17.2097 12.364L12.7903 16.6361M17.2097 16.6361L12.7903 12.364" stroke="#5051F9" stroke-width="1.5" stroke-linecap="round"/>
</svg>
