<svg width="30" height="29" viewBox="0 0 30 29" fill="none" xmlns="http://www.w3.org/2000/svg">
<path d="M6.25 23.0931C6.25 20.1772 8.37165 17.6936 11.255 17.2341L11.5148 17.1926C13.8236 16.8247 16.1764 16.8247 18.4853 17.1926L18.745 17.2341C21.6284 17.6936 23.75 20.1772 23.75 23.0931C23.75 24.3533 22.7269 25.375 21.4649 25.375H8.53516C7.2731 25.375 6.25 24.3533 6.25 23.0931Z" stroke="white" stroke-width="1.5"/>
<path d="M20.1046 8.38281C20.1046 11.0105 17.8194 13.1406 15.0004 13.1406C12.1815 13.1406 9.89624 11.0105 9.89624 8.38281C9.89624 5.75515 12.1815 3.625 15.0004 3.625C17.8194 3.625 20.1046 5.75515 20.1046 8.38281Z" stroke="#5051F9" stroke-width="1.5"/>
</svg>
